<svg xmlns="http://www.w3.org/2000/svg" viewBox="0 0 300 300">
  <path fill="#FFD700" stroke="#333" stroke-width="5.684" stroke-linejoin="round" stroke-miterlimit="10"
        d="M187.124 150.189h-75.247l37.641-119.035z"/>
  <path fill="#fff"
        d="M149.703 164.779c-8.149 0-14.78-6.63-14.78-14.779s6.63-14.779 14.78-14.779c3.948 0 7.659 1.537 10.451 4.328a14.68 14.68 0 0 1 4.328 10.45c-.001 8.149-6.63 14.78-14.779 14.78"/>
  <path fill="#333"
        d="M149.703 138.063c6.593 0 11.938 5.344 11.937 11.936 0 6.592-5.344 11.939-11.937 11.939-6.594 0-11.938-5.344-11.938-11.938 0-6.592 5.347-11.937 11.938-11.937m0-5.685c-9.717 0-17.622 7.905-17.622 17.622s7.905 17.622 17.622 17.622 17.621-7.906 17.621-17.624a17.5 17.5 0 0 0-5.16-12.459 17.5 17.5 0 0 0-12.461-5.161"/>
</svg>