<svg xmlns="http://www.w3.org/2000/svg" viewBox="0 0 300 300">
	<circle cx="150" cy="150" r="135" fill="none" stroke="#333" stroke-width="5.684" stroke-miterlimit="10"/>
	<path fill="#333" d="m163.562 53.41.177 14.752q0 3.43-3.127 3.428-1.946.002-2.949-1.477l-18.701-25.982q0 11.089.147 17.703.147 6.616.147 7.398 0 .788-.886 1.572a3.05 3.05 0 0 1-2.093.785q-1.211 0-2.065-.785-.855-.785-.854-1.975l.235-15.42q0-4.9-.148-9.945-.146-5.041-.146-5.141 0-3.378 3.008-3.377 2.183 0 3.244 1.475 17.167 23.795 18.701 25.699 0-13.467-.178-18.561-.174-5.092-.176-5.236 0-3.378 3.008-3.377 3.01 0 3.01 3.377c0 .256-.04 1.094-.119 2.523a336 336 0 0 0-.235 12.564m-.173 204.438q0 4.637-4.264 7.775-4.263 3.14-11.037 3.141-5.261 0-9.798-2.094-4.535-2.093-4.536-4.088 0-.894.726-1.494.725-.598 1.846-.598 1.117.001 2.267.623 1.15.624 2.118 1.346.966.723 2.933 1.344 1.964.626 4.445.625 4.112.001 6.805-1.746 2.69-1.743 2.691-4.834c0-1.361-.769-2.656-2.299-3.885q-2.298-1.844-5.563-3.338a396 396 0 0 1-6.533-3.066q-3.267-1.567-5.564-3.838-2.298-2.265-2.298-4.906 0-3.64 3.872-6.281 3.87-2.64 9.131-2.641t8.951 1.471c3.689 1.471 3.689 2.102 3.689 3.363q0 .947-.726 1.496-.725.547-1.934.547-1.213 0-2.36-.646c-1.147-.646-1.714-.865-2.843-1.297s-2.642-.648-4.535-.648q-2.842.001-5.143 1.297-2.298 1.294-2.298 3.189c0 1.895.766 2.434 2.298 3.514q2.3 1.62 5.564 3.113a194 194 0 0 1 6.533 3.139q3.264 1.647 5.564 4.088 2.298 2.441 2.298 5.329m-94.16-120.481q2.179.909 2.18 3.238c.001 2.329-.681 2.633-2.043 3.238q-1.635.697-9.191 3.346c-7.556 2.649-7.558 2.688-7.558 2.758s1.106.49 3.313 1.258q3.314 1.152 7.581 2.596 4.265 1.445 5.718 1.98 2.179.803 2.18 3.186c.001 2.383-.681 2.666-2.043 3.238q-.591.269-3.245 1.23a964 964 0 0 0-6.333 2.328q-3.675 1.365-5.377 2.01-1.702.64-4.041 1.553l-3.857 1.498c-1.014.395-2.11.803-3.291 1.232q-3.538 1.283-4.538 1.283-.998 0-1.611-.693a2.44 2.44 0 0 1-.612-1.662q0-2.14 2.043-2.891a533 533 0 0 1 17.996-6.316q9.053-2.998 9.054-3.051.001-.214-7.126-2.65-7.125-2.437-9.939-3.186-.997-.27-1.747-1.098c-.75-.828-.749-1.221-.749-2.006q0-2.41 2.313-3.158 17.248-5.944 17.248-6.373l-5.81-1.873q-5.807-1.874-12.708-4.068-6.899-2.195-8.534-2.729-2.042-.644-2.042-2.41 0-1.23.658-1.873.659-.644 1.657-.643c.998.001 3.328.838 7.989 2.516q6.988 2.516 11.482 4.123 8.488 3.105 10.983 4.069m191.474 22.664.294-9.191q0-4.451-.245-7.922h-10.881q-.05 1.098-.049 3.816l.245 10.35q0 1.557-.612 2.484-.614.925-1.643.924-2.156 0-2.156-3.408l.196-10.35q0-2.484-.05-3.816h-3.872q-7.156 0-9.409.232-.246 3.468-.245 7.861l.294 9.191q0 1.561-.613 2.516-.613.953-1.691.953c-1.078 0-1.282-.318-1.689-.953q-.614-.955-.614-2.516l.295-9.191-.245-10.463q0-3.12 2.254-3.121 1.718 0 5.611.145c2.599.096 9.779.145 9.779.145h4.411s9.786-.213 11.028-.404q.93-.695 1.959-.695 2.206 0 2.206 3.586l-.245 10.637.294 9.191q0 1.56-.612 2.514-.614.955-1.69.955-1.079 0-1.691-.955-.615-.955-.614-2.515"/>
	<path fill="none" stroke="#333" stroke-linecap="round" stroke-width="5.684" stroke-miterlimit="10"
		  d="M179.8 57.553c29.632 9.543 53.046 32.938 62.618 62.559m.029 59.687c-9.543 29.633-32.938 53.047-62.558 62.619M116.544 57.553c-29.632 9.543-53.045 32.938-62.617 62.559m-.031 59.687c9.544 29.633 32.938 53.047 62.559 62.619"/>
</svg>