<?xml version="1.0" encoding="UTF-8"?>
<svg viewBox="0 0 256 256" xmlns="http://www.w3.org/2000/svg">

	<!-- cube sides -->
	<polygon points="56,88 128,128 128,208 56,168" fill="#1E7C58"/>
	<polygon points="128,128 200,88 200,168 128,208" fill="#237454"/>

	<!-- cube top -->
	<polygon points="128,48 200,88 128,128 56,88" fill="#DDD8CA"/>

	<!-- thin dark band -->
	<polygon points="56,88 128,128 128,134 56,94" fill="#0F4F3A"/>
	<polygon points="128,128 200,88 200,94 128,134" fill="#0C4231"/>

	<!-- golden band -->
	<polygon points="56,94 128,134 128,152 56,112" fill="#E2C15F"/>
	<polygon points="128,134 200,94 200,112 128,152" fill="#C9A646"/>

	<!-- arrow -->
	<polygon points="22,166 96,146 58,188" fill="#E2C15F"/>
	<polygon points="58,188 96,146 76,218" fill="#C9A646"/>

	<!-- arrow tail / shaft from bottom-left -->
	<polygon points="8,216 48,181 58,188 0,246" fill="#D4B04F"/>

</svg>